<svg xmlns="http://www.w3.org/2000/svg" viewBox="0 0 360 235" fill="none">
  <path d="M48 50h132c70 0 120 32 148 92l-48 58H86C34 200 4 162 18 112l30-62Z" fill="#232932"/>
  <path d="M80 76h104c52 0 92 22 116 64l-34 36H92c-36 0-56-24-46-60l34-40Z" fill="#f5b51b"/>
  <path d="M40 50h54L64 128H10l30-78Z" fill="#15181d"/>
  <path d="M86 176h190" stroke="#15181d" stroke-width="14" stroke-linecap="round"/>
  <path d="M252 176h70l-30 34h-72l32-34Z" fill="#15181d"/>
  <circle cx="84" cy="58" r="20" fill="#111317"/>
  <circle cx="84" cy="58" r="9" fill="#737b86"/>
</svg>
