<svg xmlns="http://www.w3.org/2000/svg" viewBox="0 0 420 268" fill="none">
  <path d="M54 48h162c88 0 150 40 184 112l-60 70H82C24 230-10 184 10 122l44-74Z" fill="#171b21"/>
  <path d="M92 78h126c66 0 116 28 146 82l-46 46H92c-40 0-64-30-50-72l50-56Z" fill="#f5b51b"/>
  <path d="M44 48h68L72 144H4l40-96Z" fill="#111317"/>
  <path d="M80 202h258" stroke="#111317" stroke-width="18" stroke-linecap="round"/>
  <path d="M306 202h82l-38 42h-88l44-42Z" fill="#111317"/>
  <path d="M112 92l214 114" stroke="#111317" stroke-width="10" opacity=".3"/>
  <path d="M148 74l220 86" stroke="#111317" stroke-width="8" opacity=".2"/>
  <circle cx="92" cy="60" r="24" fill="#111317"/>
  <circle cx="92" cy="60" r="10" fill="#737b86"/>
</svg>
