<svg xmlns="http://www.w3.org/2000/svg" viewBox="0 0 900 460" fill="none">
  <path d="M100 360h536c62 0 116 38 116 38H50s-12-38 50-38Z" fill="#111317"/>
  <path d="M152 322h376c36 0 64 18 64 38H104c0-22 18-38 48-38Z" fill="#2f3741"/>
  <path d="M232 116h226c70 0 126 50 136 118l12 92H160l20-118c8-54 14-92 52-92Z" fill="#f5b51b"/>
  <path d="M326 140h108c52 0 96 38 102 90l8 58H296l14-98c2-20 8-38 16-50Z" fill="#20262e"/>
  <path d="M344 158h84c42 0 78 30 82 72l5 36H320l10-72c4-17 8-29 14-36Z" fill="#e8eef3"/>
  <path d="M522 224c90-80 190-124 306-136 18-2 32 12 28 30-4 16-20 27-36 30-102 14-188 56-264 128l-34-52Z" fill="#f5b51b"/>
  <path d="M810 102c50 16 84 54 110 116l-42 18c-23-48-50-78-88-94l20-40Z" fill="#333b46"/>
  <path d="M884 216c20 38 30 82 36 130l-42 8c-6-44-16-80-36-114l42-24Z" fill="#f5b51b"/>
  <path d="M622 290h154c38 0 72 28 80 64l-22 16c-18-26-40-40-70-40H622v-40Z" fill="#333b46"/>
  <circle cx="150" cy="382" r="50" fill="#111317"/>
  <circle cx="264" cy="382" r="50" fill="#111317"/>
  <circle cx="378" cy="382" r="50" fill="#111317"/>
  <circle cx="492" cy="382" r="50" fill="#111317"/>
  <circle cx="606" cy="382" r="50" fill="#111317"/>
  <circle cx="150" cy="382" r="20" fill="#737b86"/>
  <circle cx="264" cy="382" r="20" fill="#737b86"/>
  <circle cx="378" cy="382" r="20" fill="#737b86"/>
  <circle cx="492" cy="382" r="20" fill="#737b86"/>
  <circle cx="606" cy="382" r="20" fill="#737b86"/>
  <path d="M66 396h580" stroke="#f5b51b" stroke-width="16" stroke-linecap="round"/>
</svg>
