<svg xmlns="http://www.w3.org/2000/svg" viewBox="0 0 860 440" fill="none">
  <path d="M108 342h498c58 0 106 36 106 36H62s-10-36 46-36Z" fill="#15181d"/>
  <path d="M154 306h344c32 0 58 16 58 36H112c0-20 16-36 42-36Z" fill="#2d3540"/>
  <path d="M242 118h206c62 0 112 44 120 106l10 78H174l18-104c8-48 12-80 50-80Z" fill="#f5b51b"/>
  <path d="M326 140h98c46 0 84 34 90 80l6 48H302l12-84c2-18 6-32 12-44Z" fill="#20262e"/>
  <path d="M342 156h78c36 0 66 26 70 62l4 30H324l9-62c3-14 5-24 9-30Z" fill="#e5edf3"/>
  <path d="M492 214c84-70 174-110 272-122 16-2 28 11 24 26-4 14-18 24-32 26-86 14-162 50-232 112l-32-42Z" fill="#f5b51b"/>
  <path d="M748 104c44 14 74 48 98 102l-38 18c-21-43-44-68-78-82l18-38Z" fill="#333b46"/>
  <path d="M820 206c22 38 34 78 40 122l-40 8c-6-40-18-74-38-106l38-24Z" fill="#f5b51b"/>
  <path d="M584 270h142c34 0 64 24 72 56l-18 16c-16-23-36-36-62-36H584v-36Z" fill="#333b46"/>
  <circle cx="164" cy="362" r="46" fill="#111317"/>
  <circle cx="270" cy="362" r="46" fill="#111317"/>
  <circle cx="376" cy="362" r="46" fill="#111317"/>
  <circle cx="482" cy="362" r="46" fill="#111317"/>
  <circle cx="164" cy="362" r="19" fill="#737b86"/>
  <circle cx="270" cy="362" r="19" fill="#737b86"/>
  <circle cx="376" cy="362" r="19" fill="#737b86"/>
  <circle cx="482" cy="362" r="19" fill="#737b86"/>
  <path d="M78 374h506" stroke="#f5b51b" stroke-width="14" stroke-linecap="round"/>
</svg>
