<svg xmlns="http://www.w3.org/2000/svg" viewBox="0 0 820 420" fill="none">
  <path d="M116 318h462c52 0 94 32 94 32H74s-8-32 42-32Z" fill="#191d23"/>
  <path d="M154 286h318c28 0 50 14 50 32H118c0-18 14-32 36-32Z" fill="#2f3741"/>
  <path d="M252 122h178c52 0 96 38 104 90l10 64H190l14-86c6-40 10-68 48-68Z" fill="#f5b51b"/>
  <path d="M324 144h86c38 0 72 28 78 66l6 38H308l10-68c2-15 4-26 6-36Z" fill="#20262e"/>
  <path d="M336 158h68c30 0 56 22 60 52l4 24H322l8-54c2-10 3-17 6-22Z" fill="#dfe7ee"/>
  <path d="M456 206c78-62 156-96 240-104 14-2 24 9 20 22-4 12-16 20-28 22-74 10-142 42-204 98l-28-38Z" fill="#f5b51b"/>
  <path d="M678 112c38 14 62 42 82 88l-34 16c-17-36-36-58-64-70l16-34Z" fill="#333b46"/>
  <path d="M738 200c20 34 32 70 40 110l-34 8c-8-38-18-68-36-98l30-20Z" fill="#f5b51b"/>
  <path d="M548 250h134c28 0 54 22 60 50l-16 12c-14-20-30-30-52-30H548v-32Z" fill="#333b46"/>
  <circle cx="170" cy="335" r="42" fill="#111317"/>
  <circle cx="268" cy="335" r="42" fill="#111317"/>
  <circle cx="366" cy="335" r="42" fill="#111317"/>
  <circle cx="464" cy="335" r="42" fill="#111317"/>
  <circle cx="170" cy="335" r="18" fill="#6b7280"/>
  <circle cx="268" cy="335" r="18" fill="#6b7280"/>
  <circle cx="366" cy="335" r="18" fill="#6b7280"/>
  <circle cx="464" cy="335" r="18" fill="#6b7280"/>
  <path d="M90 346h470" stroke="#f5b51b" stroke-width="12" stroke-linecap="round"/>
</svg>
